<?xml version="1.0" encoding="UTF-8"?>
<svg version="1.1" xmlns="http://www.w3.org/2000/svg" width="126" height="128">
<path d="M0 0 C41.58 0 83.16 0 126 0 C126 42.24 126 84.48 126 128 C84.42 128 42.84 128 0 128 C0 85.76 0 43.52 0 0 Z " fill="#FCFDFE" transform="translate(0,0)"/>
<path d="M0 0 C41.58 0 83.16 0 126 0 C126 42.24 126 84.48 126 128 C84.42 128 42.84 128 0 128 C0 85.76 0 43.52 0 0 Z M9 15 C3.47729716 21.99942556 1.88243913 27.04152219 1.85473633 35.97412109 C1.85137772 36.65611069 1.8480191 37.33810028 1.84455872 38.04075623 C1.83509565 40.28500208 1.83310796 42.52917296 1.83203125 44.7734375 C1.82881548 46.34135976 1.82545117 47.90928173 1.82194519 49.47720337 C1.81596557 52.76052547 1.81410409 56.04382128 1.81469727 59.32714844 C1.81479883 63.52229874 1.80114723 67.71727958 1.78392506 71.91238976 C1.77277503 75.1501441 1.77077898 78.38785785 1.77130699 81.62562943 C1.77013138 83.17169402 1.76573324 84.71775982 1.75797462 86.26380539 C1.74811365 88.43168568 1.75107653 90.59920299 1.75708008 92.76708984 C1.75565506 93.99777191 1.75423004 95.22845398 1.75276184 96.49642944 C2.35633185 105.049519 5.77926149 112.10638867 12.06640625 117.90625 C16.06502079 121.18456985 16.06502079 121.18456985 21 122 C21 122.66 21 123.32 21 124 C28.58952819 126.43396652 36.03060873 126.29168747 43.9375 126.265625 C45.38663803 126.26697491 46.83577562 126.26891815 48.28491211 126.27142334 C51.31075383 126.27435927 54.33647685 126.27012656 57.36230469 126.26074219 C61.22211661 126.24934851 65.08165029 126.25591623 68.94145203 126.26788712 C71.93048157 126.27514727 74.91944619 126.2727988 77.90847778 126.26763153 C79.33090244 126.2663065 80.75333318 126.2679021 82.17575073 126.27259064 C94.61918198 126.30461478 105.28476245 125.31825665 114.74609375 116.34375 C117.27365753 113.55256555 117.27365753 113.55256555 118 110 C118.66 110 119.32 110 120 110 C123.99075544 102.03698319 123.43600976 93.77885499 123.3984375 85.09375 C123.40046158 83.4428291 123.4033758 81.79190907 123.40713501 80.14099121 C123.41154265 76.69140051 123.40517788 73.24204383 123.39111328 69.79248047 C123.37402222 65.38776771 123.38387181 60.9836035 123.40183067 56.57891083 C123.41271087 53.17295252 123.40920283 49.76712262 123.4014473 46.36116028 C123.39945698 44.73777704 123.40186317 43.11438184 123.40888596 41.49101257 C123.44673424 30.28494457 123.33347755 21.52287476 115 13 C110.56532318 9.16934519 110.56532318 9.16934519 105 8 C105 7.34 105 6.68 105 6 C100.44314033 4.24374417 96.63291371 3.73903831 91.76049805 3.70947266 C91.06206787 3.70275543 90.3636377 3.69603821 89.64404297 3.68911743 C87.34986122 3.67022037 85.05597335 3.66621738 82.76171875 3.6640625 C81.15517561 3.6576284 79.54863363 3.65089959 77.9420929 3.64389038 C74.57896206 3.63193806 71.21593377 3.6282074 67.8527832 3.62939453 C63.5623697 3.62959751 59.27262011 3.60230823 54.9823637 3.56785011 C51.66472914 3.54551242 48.34725258 3.54155909 45.02955055 3.54261398 C43.44883756 3.54026786 41.86811955 3.53150055 40.28748131 3.51594925 C27.379619 3.40084887 18.10873863 5.22150118 9 15 Z " fill="#2847AD" transform="translate(0,0)"/>
<path d="M0 0 C0.33 0 0.66 0 1 0 C0.99476318 0.883461 0.98952637 1.766922 0.98413086 2.67715454 C0.9415972 11.06133293 0.93802049 19.44447154 0.97665405 27.82868385 C0.99517749 32.13777772 0.99938445 36.44583279 0.96923828 40.75488281 C0.94062042 44.92466796 0.95174338 49.09273215 0.98880005 53.2624321 C0.99616529 54.84177701 0.98994165 56.42125408 0.96896362 58.00047684 C0.82748763 69.62004726 2.86883175 77.56734073 10 87 C13.43035124 90.30015564 16.48026652 92.49342217 21 94 C21 94.66 21 95.32 21 96 C28.63045779 97.21807865 36.22642248 97.16392513 43.9375 97.16796875 C45.38663769 97.17118826 46.83577507 97.17455284 48.28491211 97.17805481 C51.3107173 97.18401592 54.33649405 97.18589771 57.36230469 97.18530273 C61.22209613 97.18520101 65.08170408 97.19887782 68.94145203 97.21607494 C71.930469 97.22723833 74.9194421 97.22922065 77.90847778 97.22869301 C79.33090856 97.22986564 80.75334074 97.23424672 82.17575073 97.24202538 C94.2772118 97.30203931 102.99262673 96.20885119 113 89 C115.16534065 86.67621979 116.59733916 84.80532169 118 82 C118.66 82 119.32 82 120 82 C120.99 77.71 121.98 73.42 123 69 C123.66 69 124.32 69 125 69 C124.67 46.23 124.34 23.46 124 0 C126.70114637 2.70114637 126.2366154 4.7941254 126.2488575 8.4628315 C126.23806317 9.82918645 126.23806317 9.82918645 126.22705078 11.22314453 C126.22729185 12.1947798 126.22753292 13.16641506 126.2277813 14.16749382 C126.22628469 17.32269217 126.21103602 20.47765625 126.1953125 23.6328125 C126.19237314 25.57674038 126.19033204 27.52066983 126.18920898 29.46459961 C126.17870921 36.68475716 126.15078695 43.90488086 126.125 51.125 C126.063125 75.318125 126.063125 75.318125 126 100 C84.42 100 42.84 100 0 100 C0 67 0 34 0 0 Z " fill="#1D3A99" transform="translate(0,28)"/>
<path d="M0 0 C0.99 0.33 1.98 0.66 3 1 C4.09765625 3.51171875 4.09765625 3.51171875 5.0625 6.6875 C5.38347656 7.72261719 5.70445313 8.75773437 6.03515625 9.82421875 C6.35355469 10.87222656 6.67195313 11.92023437 7 13 C7.33 13.9384375 7.66 14.876875 8 15.84375 C9.24953985 19.78761016 10.08802256 23.76692701 10.9375 27.8125 C12.27625155 34.03353473 13.7857629 40.02155983 16 46 C16.2475 45.071875 16.495 44.14375 16.75 43.1875 C17.71522012 39.84003448 18.79654842 36.54171087 19.9375 33.25 C20.25589844 32.32703125 20.57429688 31.4040625 20.90234375 30.453125 C22.027889 27.93767156 22.74522428 26.57418673 25 25 C27.48046875 24.70703125 27.48046875 24.70703125 30.1875 24.8125 C31.53908203 24.85310547 31.53908203 24.85310547 32.91796875 24.89453125 C33.94857422 24.94673828 33.94857422 24.94673828 35 25 C35 25.99 35 26.98 35 28 C32.03 28.33 29.06 28.66 26 29 C23.63646302 34.2191887 21.87469701 39.42969363 20.3125 44.9375 C20.08755859 45.71673828 19.86261719 46.49597656 19.63085938 47.29882812 C19.08322633 49.19806614 18.54104051 51.09887345 18 53 C17.01 53 16.02 53 15 53 C12.77569153 47.89651052 10.87319851 42.86296199 9.59375 37.4375 C8.02184446 30.9825797 6.19596373 24.61996084 4.3125 18.25 C3.83200195 16.61417969 3.83200195 16.61417969 3.34179688 14.9453125 C2.56334249 12.29624385 1.78198275 9.64802925 1 7 C-0.32 12.28 -1.64 17.56 -3 23 C-3.66 23 -4.32 23 -5 23 C-5 23.99 -5 24.98 -5 26 C-8.31371 28.20914 -9.3446021 28.22481553 -13.1875 28.125 C-14.08855469 28.10695313 -14.98960938 28.08890625 -15.91796875 28.0703125 C-16.60503906 28.04710938 -17.29210938 28.02390625 -18 28 C-18 27.01 -18 26.02 -18 25 C-14.7 24.67 -11.4 24.34 -8 24 C-6.35 17.4 -4.7 10.8 -3 4 C-2.34 4 -1.68 4 -1 4 C-0.67 2.68 -0.34 1.36 0 0 Z " fill="#647BC8" transform="translate(54,38)"/>
<path d="M0 0 C0.33 0.66 0.66 1.32 1 2 C1.66 2 2.32 2 3 2 C3.19335938 2.78503906 3.38671875 3.57007812 3.5859375 4.37890625 C4.96653221 9.9491275 6.37388447 15.49622437 8 21 C8.37125 19.6078125 8.37125 19.6078125 8.75 18.1875 C9.71522012 14.84003448 10.79654842 11.54171087 11.9375 8.25 C12.25589844 7.32703125 12.57429688 6.4040625 12.90234375 5.453125 C14.027889 2.93767156 14.74522428 1.57418673 17 0 C19.48046875 -0.29296875 19.48046875 -0.29296875 22.1875 -0.1875 C23.08855469 -0.16042969 23.98960938 -0.13335937 24.91796875 -0.10546875 C25.94857422 -0.05326172 25.94857422 -0.05326172 27 0 C27 0.99 27 1.98 27 3 C22.545 3.495 22.545 3.495 18 4 C15.63646302 9.2191887 13.87469701 14.42969363 12.3125 19.9375 C12.08755859 20.71673828 11.86261719 21.49597656 11.63085938 22.29882812 C11.08322633 24.19806614 10.54104051 26.09887345 10 28 C9.01 28 8.02 28 7 28 C3.09104395 19.03122774 -0.29274049 9.89462843 0 0 Z " fill="#3F5CBA" transform="translate(62,63)"/>
<path d="M0 0 C0.93423645 3.01031744 1.04449911 3.86650268 0 7 C-3.31371 9.20914 -4.3446021 9.22481553 -8.1875 9.125 C-9.08855469 9.10695313 -9.98960938 9.08890625 -10.91796875 9.0703125 C-11.60503906 9.04710938 -12.29210938 9.02390625 -13 9 C-13 8.01 -13 7.02 -13 6 C-9.7 5.67 -6.4 5.34 -3 5 C-2.67 4.01 -2.34 3.02 -2 2 C-1.34 2 -0.68 2 0 2 C0 1.34 0 0.68 0 0 Z " fill="#415DBB" transform="translate(49,57)"/>
<path d="M0 0 C0.33 0 0.66 0 1 0 C1 1.65 1 3.3 1 5 C1.66 5 2.32 5 3 5 C2.01 9.62 1.02 14.24 0 19 C-0.99 18.34 -1.98 17.68 -3 17 C-2.36934845 11.2190275 -1.34844868 5.6556294 0 0 Z " fill="#566FC2" transform="translate(51,42)"/>
<path d="M0 0 C0.90105469 0.02707031 1.80210938 0.05414063 2.73046875 0.08203125 C3.76107422 0.13423828 3.76107422 0.13423828 4.8125 0.1875 C4.8125 1.1775 4.8125 2.1675 4.8125 3.1875 C3.87277344 3.27837891 3.87277344 3.27837891 2.9140625 3.37109375 C2.09679687 3.45488281 1.27953125 3.53867188 0.4375 3.625 C-0.37460938 3.70621094 -1.18671875 3.78742188 -2.0234375 3.87109375 C-4.23022805 4.07840114 -4.23022805 4.07840114 -6.1875 5.1875 C-6.8475 4.5275 -7.5075 3.8675 -8.1875 3.1875 C-5.67753317 0.01043235 -3.96125134 -0.15433447 0 0 Z " fill="#4964BE" transform="translate(84.1875,62.8125)"/>
<path d="M0 0 C0.33 0.66 0.66 1.32 1 2 C1.66 2 2.32 2 3 2 C3.33820166 3.5823006 3.67035939 5.16589375 4 6.75 C4.185625 7.63171875 4.37125 8.5134375 4.5625 9.421875 C5 12 5 12 5 16 C4.34 16 3.68 16 3 16 C-0.44419134 5.62642369 -0.44419134 5.62642369 0 0 Z " fill="#3050B5" transform="translate(62,63)"/>
<path d="M0 0 C0.99 0.33 1.98 0.66 3 1 C3 2.65 3 4.3 3 6 C2.01 5.67 1.02 5.34 0 5 C0 6.32 0 7.64 0 9 C-0.66 9 -1.32 9 -2 9 C-1.125 1.125 -1.125 1.125 0 0 Z " fill="#2E4DB4" transform="translate(54,38)"/>
<path d="M0 0 C2.12508244 3.18762365 2.5020163 5.26512223 3 9 C2.01 9.33 1.02 9.66 0 10 C-0.66 7.36 -1.32 4.72 -2 2 C-1.34 2 -0.68 2 0 2 C0 1.34 0 0.68 0 0 Z " fill="#556FC2" transform="translate(67,77)"/>
<path d="M0 0 C0.99 0.33 1.98 0.66 3 1 C3.33 3.97 3.66 6.94 4 10 C0.48283697 6.48283697 0.45323837 4.80432667 0 0 Z " fill="#3453B7" transform="translate(58,52)"/>
<path d="M0 0 C1.32 0.33 2.64 0.66 4 1 C4 2.65 4 4.3 4 6 C3.01 6 2.02 6 1 6 C0.67 4.02 0.34 2.04 0 0 Z " fill="#2243B0" transform="translate(68,85)"/>
<path d="M0 0 C0.33 0 0.66 0 1 0 C1 1.65 1 3.3 1 5 C1.66 5 2.32 5 3 5 C2.67 6.65 2.34 8.3 2 10 C1.01 9.67 0.02 9.34 -1 9 C-0.67 6.03 -0.34 3.06 0 0 Z " fill="#758ACE" transform="translate(51,42)"/>
</svg>
